<svg width="16" height="12" viewBox="0 0 16 12" fill="none" xmlns="http://www.w3.org/2000/svg">
<g id="Clip path group">
<mask id="mask0_3_5738" style="mask-type:luminance" maskUnits="userSpaceOnUse" x="0" y="0" width="16" height="12">
<g id="bp">
<path id="Vector" d="M0.864746 0.333313H15.8647V11.2604H0.864746V0.333313Z" fill="white"/>
</g>
</mask>
<g mask="url(#mask0_3_5738)">
<g id="Group">
<path id="Vector_2" d="M1.77083 5.21356L0.984375 6.00002C0.869792 6.11981 0.869792 6.30731 0.984375 6.4219L5.70833 11.1459C5.98437 11.4219 6.42708 11.4219 6.70312 11.1459L16.1927 1.66148C16.3125 1.54169 16.3125 1.35419 16.1927 1.2344L15.4062 0.447938C15.2917 0.333354 15.1042 0.333354 14.9844 0.447938L6.32812 9.1094C6.26042 9.1719 6.15104 9.1719 6.08333 9.1094L2.19271 5.21356C2.07813 5.09898 1.88542 5.09898 1.77083 5.21356Z" fill="#5E17EB"/>
</g>
</g>
</g>
</svg>
